<svg width="29" height="29" viewBox="0 0 29 29" fill="none" xmlns="http://www.w3.org/2000/svg">
<path d="M11.1961 16.5678C12.317 20.7663 18.1186 23.884 21.6603 21.4468C23.8128 16.8792 20.6944 13.3002 16.7138 12.3679C15.6944 8.55888 11.7827 5.6361 7.32613 8.11059C5.58483 11.0181 7.89854 15.0527 11.1964 16.5672L11.1961 16.5678Z" fill="#655629" stroke="#6D3D1F" stroke-width="5" stroke-linecap="square"/>
<path d="M16.6511 21.0318C17.8475 22.156 19.7031 22.0587 20.8005 20.815C21.8978 19.5713 21.8178 17.6561 20.6214 16.5323C19.4316 15.4148 14.7578 15.139 14.7578 15.139C14.7578 15.139 15.4546 19.9087 16.6511 21.0318Z" fill="#D4AA63" stroke="#6D3D1F" stroke-width="5" stroke-linecap="square"/>
<path d="M8.55886 13.5403C7.36258 12.4163 7.28243 10.5012 8.37966 9.25753C9.477 8.01383 11.3327 7.91696 12.5291 9.04075C13.7187 10.1583 14.4222 14.9336 14.4222 14.9336C14.4222 14.9336 9.75504 14.6641 8.55886 13.5403Z" fill="#DCAD64" stroke="#6D3D1F" stroke-width="5" stroke-linecap="square"/>
<path d="M11.2079 16.6023C12.3287 20.8008 18.1303 23.9184 21.6717 21.482C21.6717 21.482 18.3791 18.714 16.9984 17.6406C16.6406 17.3627 16.2607 17.0823 15.8978 16.8164C16.035 16.7615 16.1717 16.7002 16.3078 16.6328C16.7194 16.9772 17.1929 17.3619 17.7177 17.7653C19.615 19.2256 21.6709 21.4812 21.6709 21.4812C23.8236 16.9135 20.7051 13.3346 16.7245 12.4021C15.7059 8.59398 11.7944 5.67136 7.33786 8.14583C7.33786 8.14583 7.97012 8.17739 9.54704 9.75726C11.3544 11.5203 11.9988 12.2253 12.2073 12.5291C12.113 12.5581 12.0192 12.5889 11.9258 12.6215C11.4485 12.2227 10.5737 11.2307 9.73161 10.3944C8.5739 9.24556 7.33786 8.14583 7.33786 8.14583C5.59656 11.0534 7.91017 15.0879 11.2081 16.6023H11.2079Z" fill="#B57E4B"/>
<path d="M25.8996 17.9423L2.81641 9.88298L2.25517 11.555L25.3384 19.6143L25.8996 17.9423Z" fill="#818181"/>
<path d="M14.5 27.4967C21.4036 27.4967 27 21.7891 27 14.7484C27 7.70763 21.4036 2 14.5 2C7.59645 2 2 7.70763 2 14.7484C2 21.7891 7.59645 27.4967 14.5 27.4967Z" stroke="#818181" stroke-width="3"/>
</svg>
