<svg width="21" height="9" viewBox="0 0 21 9" fill="none" xmlns="http://www.w3.org/2000/svg">
<path d="M7.69638 0H4.3125C3.16875 1.70431e-08 2.07185 0.454351 1.2631 1.2631C0.454351 2.07185 0 3.16875 0 4.3125C0 5.45625 0.454351 6.55315 1.2631 7.3619C2.07185 8.17065 3.16875 8.625 4.3125 8.625H8.625C9.31511 8.62536 9.99522 8.4601 10.6082 8.1431C11.2212 7.8261 11.7492 7.36661 12.1477 6.80325C12.5463 6.23988 12.8039 5.58909 12.8988 4.90553C12.9937 4.22198 12.9232 3.52564 12.6931 2.875H11.5C11.3764 2.875 11.2556 2.88937 11.1406 2.91956C11.3831 3.35729 11.5071 3.85071 11.5003 4.35105C11.4936 4.85138 11.3565 5.3413 11.1024 5.77237C10.8483 6.20344 10.4861 6.56073 10.0516 6.80892C9.61712 7.05711 9.12538 7.1876 8.625 7.1875H4.3125C3.55 7.1875 2.81873 6.8846 2.27957 6.34543C1.7404 5.80626 1.4375 5.075 1.4375 4.3125C1.4375 3.55 1.7404 2.81873 2.27957 2.27957C2.81873 1.7404 3.55 1.4375 4.3125 1.4375H6.51906C6.83244 0.897 7.23063 0.411125 7.69781 0H7.69638Z" fill="white"/>
<path d="M11.4998 5.92942e-07C10.8097 -0.000361258 10.1296 0.1649 9.51661 0.481902C8.90361 0.798904 8.37565 1.25839 7.97707 1.82175C7.57849 2.38512 7.32093 3.03591 7.22603 3.71947C7.13113 4.40302 7.20166 5.09936 7.4317 5.75H9.01007C8.75774 5.31295 8.6249 4.81718 8.62489 4.31252C8.62489 3.80786 8.75773 3.31209 9.01005 2.87503C9.26238 2.43798 9.6253 2.07504 10.0623 1.8227C10.4994 1.57037 10.9952 1.43751 11.4998 1.4375H15.8123C16.5748 1.4375 17.3061 1.7404 17.8453 2.27957C18.3844 2.81874 18.6873 3.55 18.6873 4.3125C18.6873 5.075 18.3844 5.80626 17.8453 6.34543C17.3061 6.8846 16.5748 7.1875 15.8123 7.1875H13.6058C13.293 7.72714 12.8949 8.21259 12.427 8.625H15.8123C16.3786 8.625 16.9394 8.51345 17.4626 8.29673C17.9859 8.08001 18.4613 7.76235 18.8617 7.3619C19.2622 6.96145 19.5798 6.48604 19.7966 5.96282C20.0133 5.43961 20.1248 4.87883 20.1248 4.3125C20.1248 3.74617 20.0133 3.18539 19.7966 2.66218C19.5798 2.13896 19.2622 1.66356 18.8617 1.2631C18.4613 0.86265 17.9859 0.544994 17.4626 0.32827C16.9394 0.111547 16.3786 5.84503e-07 15.8123 5.92942e-07H11.4998Z" fill="white"/>
</svg>
