<svg width="626" height="626" viewBox="0 0 626 626" fill="none" xmlns="http://www.w3.org/2000/svg">
<g opacity="0.2">
<path d="M235.144 355.096C261.596 452.25 398.514 524.394 482.097 467.998C532.898 362.302 459.304 279.484 365.36 257.91C341.304 169.768 248.988 102.134 143.812 159.394C102.717 226.675 157.321 320.036 235.149 355.081L235.144 355.096Z" fill="#655629" stroke="#6D3D1F" stroke-width="5" stroke-linecap="square"/>
<path d="M363.847 458.401C392.082 484.415 435.874 482.163 461.771 453.383C487.668 424.603 485.779 380.286 457.545 354.28C429.467 328.421 319.165 322.039 319.165 322.039C319.165 322.039 335.61 432.41 363.847 458.401Z" fill="#D4AA63" stroke="#6D3D1F" stroke-width="5" stroke-linecap="square"/>
<path d="M172.873 285.039C144.641 259.028 142.749 214.713 168.644 185.934C194.541 157.154 238.336 154.913 266.571 180.917C294.646 206.777 311.248 317.28 311.248 317.28C311.248 317.28 201.103 311.043 172.873 285.039Z" fill="#DCAD64" stroke="#6D3D1F" stroke-width="5" stroke-linecap="square"/>
<path d="M235.176 355.905C261.629 453.061 398.546 525.203 482.122 468.824C482.122 468.824 404.418 404.771 371.832 379.934C363.389 373.501 354.424 367.013 345.859 360.859C349.097 359.589 352.322 358.172 355.534 356.612C365.247 364.581 376.424 373.483 388.807 382.819C433.583 416.609 482.104 468.804 482.104 468.804C532.907 363.108 459.31 280.29 365.369 258.713C341.331 170.591 249.017 102.961 143.844 160.221C143.844 160.221 158.765 160.951 195.981 197.51C238.635 238.308 253.842 254.621 258.764 261.652C256.537 262.321 254.324 263.034 252.118 263.789C240.856 254.56 220.209 231.607 200.336 212.254C173.014 185.669 143.844 160.221 143.844 160.221C102.749 227.502 157.35 320.863 235.181 355.905H235.176Z" fill="#B57E4B" stroke="#6D3D1F" stroke-width="5" stroke-linecap="square"/>
<path d="M581.966 386.92L37.2026 200.425L23.9574 239.115L568.721 425.61L581.966 386.92Z" fill="#818181"/>
<path d="M313 608C475.924 608 608 475.924 608 313C608 150.076 475.924 18 313 18C150.076 18 18 150.076 18 313C18 475.924 150.076 608 313 608Z" stroke="#818181" stroke-width="36"/>
</g>
</svg>
