<svg width="34" height="36" viewBox="0 0 34 36" fill="none" xmlns="http://www.w3.org/2000/svg">
<path d="M15.9998 18.0002C20.6022 18.0002 24.3332 14.2692 24.3332 9.66683C24.3332 5.06446 20.6022 1.3335 15.9998 1.3335C11.3975 1.3335 7.6665 5.06446 7.6665 9.66683C7.6665 14.2692 11.3975 18.0002 15.9998 18.0002Z" stroke="white" stroke-width="2"/>
<path d="M24.3334 34.6668H4.77669C4.30399 34.6669 3.83668 34.5665 3.40576 34.3722C2.97485 34.1779 2.59019 33.8942 2.27731 33.5398C1.96444 33.1855 1.7305 32.7687 1.59103 32.317C1.45156 31.8654 1.40974 31.3892 1.46835 30.9202L2.11835 25.7135C2.26951 24.5039 2.85738 23.3911 3.77141 22.5845C4.68543 21.7779 5.86265 21.333 7.08169 21.3335H7.66669" stroke="white" stroke-width="2" stroke-linecap="round" stroke-linejoin="round"/>
<path d="M32.6666 21.3335L24.3333 29.6668M32.6666 29.6668L24.3333 21.3335L32.6666 29.6668Z" stroke="white" stroke-width="2" stroke-linecap="round"/>
</svg>
