<svg width="27" height="27" viewBox="0 0 27 27" fill="none" xmlns="http://www.w3.org/2000/svg">
<path fill-rule="evenodd" clip-rule="evenodd" d="M6.13802 26.9867C5.53588 26.9653 4.75982 26.9182 4.40709 26.847V26.847C3.86866 26.7383 3.36018 26.5734 2.93732 26.3579V26.3579C2.4405 26.1047 1.99521 25.7817 1.61072 25.3978V25.3978C1.22536 25.0132 0.901011 24.5675 0.646795 24.0699V24.0699C0.431875 23.6493 0.267113 23.1439 0.15792 22.6085V22.6085C0.0852932 22.2522 0.0372609 21.4704 0.0154868 20.8644V20.8644C0.00665703 20.6167 0.00212655 20.2961 0.00212655 20.1483V20.1483L0 6.85383C0 6.70659 0.00448425 6.38594 0.0132678 6.13797V6.13797C0.034672 5.53588 0.0817798 4.75982 0.153019 4.40709V4.40709C0.261705 3.86871 0.426605 3.36018 0.64208 2.93732V2.93732C0.895325 2.44045 1.21833 1.99526 1.60222 1.61072V1.61072C1.98685 1.2254 2.43259 0.901057 2.93011 0.646795V0.646795C3.35075 0.431921 3.85613 0.267113 4.39147 0.15792V0.15792C4.74776 0.0852932 5.52964 0.0372609 6.13566 0.0155331V0.0155331C6.38326 0.00665703 6.70386 0.00212655 6.8517 0.00212655V0.00212655L20.1462 0C20.2935 0 20.6141 0.00443802 20.862 0.0132678V0.0132678C21.4641 0.0347183 22.2402 0.0817798 22.5929 0.153019V0.153019C23.1313 0.261751 23.6399 0.426651 24.0627 0.64208V0.64208C24.5595 0.895325 25.0048 1.21838 25.3893 1.60222V1.60222C25.7746 1.98689 26.0989 2.43254 26.3532 2.93011V2.93011C26.5681 3.35075 26.7329 3.85609 26.8421 4.39147V4.39147C26.9148 4.74776 26.9627 5.52968 26.9845 6.13566V6.13566C26.9934 6.38331 26.9979 6.70386 26.9979 6.8517V6.8517L27 20.1462C27 20.2935 26.9956 20.6141 26.9867 20.862V20.862C26.9653 21.4641 26.9182 22.2402 26.847 22.5929V22.5929C26.7383 23.1313 26.5734 23.6398 26.3579 24.0627V24.0627C26.1047 24.5596 25.7816 25.0048 25.3978 25.3893V25.3893C25.0132 25.7746 24.5674 26.099 24.0699 26.3532V26.3532C23.6492 26.5681 23.1439 26.7329 22.6085 26.8421V26.8421C22.2522 26.9147 21.4704 26.9627 20.8644 26.9845V26.9845C20.6167 26.9934 20.2961 26.9979 20.1483 26.9979V26.9979L6.85383 27C6.70654 27 6.3859 26.9956 6.13802 26.9867" fill="#4584F7"/>
<mask id="mask0_138:2401" style="mask-type:alpha" maskUnits="userSpaceOnUse" x="0" y="0" width="27" height="27">
<path fill-rule="evenodd" clip-rule="evenodd" d="M6.13802 26.9867C5.53588 26.9653 4.75982 26.9182 4.40709 26.847V26.847C3.86866 26.7383 3.36018 26.5734 2.93732 26.3579V26.3579C2.4405 26.1047 1.99521 25.7817 1.61072 25.3978V25.3978C1.22536 25.0132 0.901011 24.5675 0.646795 24.0699V24.0699C0.431875 23.6493 0.267113 23.1439 0.15792 22.6085V22.6085C0.0852932 22.2522 0.0372609 21.4704 0.0154868 20.8644V20.8644C0.00665703 20.6167 0.00212655 20.2961 0.00212655 20.1483V20.1483L0 6.85383C0 6.70659 0.00448425 6.38594 0.0132678 6.13797V6.13797C0.034672 5.53588 0.0817798 4.75982 0.153019 4.40709V4.40709C0.261705 3.86871 0.426605 3.36018 0.64208 2.93732V2.93732C0.895325 2.44045 1.21833 1.99526 1.60222 1.61072V1.61072C1.98685 1.2254 2.43259 0.901057 2.93011 0.646795V0.646795C3.35075 0.431921 3.85613 0.267113 4.39147 0.15792V0.15792C4.74776 0.0852932 5.52964 0.0372609 6.13566 0.0155331V0.0155331C6.38326 0.00665703 6.70386 0.00212655 6.8517 0.00212655V0.00212655L20.1462 0C20.2935 0 20.6141 0.00443802 20.862 0.0132678V0.0132678C21.4641 0.0347183 22.2402 0.0817798 22.5929 0.153019V0.153019C23.1313 0.261751 23.6399 0.426651 24.0627 0.64208V0.64208C24.5595 0.895325 25.0048 1.21838 25.3893 1.60222V1.60222C25.7746 1.98689 26.0989 2.43254 26.3532 2.93011V2.93011C26.5681 3.35075 26.7329 3.85609 26.8421 4.39147V4.39147C26.9148 4.74776 26.9627 5.52968 26.9845 6.13566V6.13566C26.9934 6.38331 26.9979 6.70386 26.9979 6.8517V6.8517L27 20.1462C27 20.2935 26.9956 20.6141 26.9867 20.862V20.862C26.9653 21.4641 26.9182 22.2402 26.847 22.5929V22.5929C26.7383 23.1313 26.5734 23.6398 26.3579 24.0627V24.0627C26.1047 24.5596 25.7816 25.0048 25.3978 25.3893V25.3893C25.0132 25.7746 24.5674 26.099 24.0699 26.3532V26.3532C23.6492 26.5681 23.1439 26.7329 22.6085 26.8421V26.8421C22.2522 26.9147 21.4704 26.9627 20.8644 26.9845V26.9845C20.6167 26.9934 20.2961 26.9979 20.1483 26.9979V26.9979L6.85383 27C6.70654 27 6.3859 26.9956 6.13802 26.9867" fill="white"/>
</mask>
<g mask="url(#mask0_138:2401)">
<path d="M10.5102 21.121C8.48252 21.1229 6.49712 20.5404 4.79102 19.4429C5.08655 19.4773 5.38383 19.4943 5.68135 19.4939C7.36124 19.4966 8.99325 18.9335 10.3151 17.8952C9.53646 17.8803 8.78191 17.6221 8.15696 17.1567C7.532 16.6913 7.06786 16.0419 6.82944 15.2994C7.06048 15.3442 7.29526 15.3668 7.53059 15.3669C7.86288 15.3669 8.19369 15.3227 8.51433 15.2354C7.66978 15.0646 6.91024 14.6064 6.36456 13.9386C5.81889 13.2707 5.52069 12.4344 5.52054 11.5715C5.52054 11.5549 5.52054 11.5395 5.52054 11.5241C6.03842 11.8128 6.61776 11.9732 7.21017 11.9919C6.4202 11.4633 5.86116 10.653 5.64696 9.72604C5.43276 8.79905 5.57953 7.82514 6.05735 7.00276C6.99336 8.15726 8.16127 9.10177 9.48529 9.77501C10.8093 10.4482 12.2599 10.8352 13.7428 10.9107C13.554 10.1083 13.6353 9.26595 13.974 8.51464C14.3127 7.76333 14.8898 7.1452 15.6156 6.75642C16.3414 6.36764 17.1751 6.23001 17.9871 6.36494C18.799 6.49987 19.5437 6.8998 20.1052 7.5025C20.9391 7.33647 21.7387 7.02973 22.47 6.59539C22.1914 7.46078 21.6087 8.19548 20.83 8.66303C21.5696 8.5735 22.2917 8.37393 22.9725 8.07092C22.4714 8.82154 21.8408 9.47677 21.1102 10.0059C21.1185 10.1658 21.1221 10.3269 21.1221 10.4891C21.1221 15.4261 17.368 21.121 10.5055 21.121" fill="white"/>
</g>
</svg>
